<?xml version="1.0" encoding="UTF-8"?><svg id="Layer_2" xmlns="http://www.w3.org/2000/svg" viewBox="0 0 295.93 362.62"><defs><style>.cls-1{fill:#bbf4ff;}.cls-2{fill:#ffe766;}.cls-3{fill:#ccf7ff;}.cls-4{fill:none;stroke:#000;stroke-linecap:round;stroke-linejoin:round;stroke-width:4px;}.cls-5{fill:#ccf5ff;}</style></defs><g id="Layer_1-2"><path class="cls-3" d="M258.52,336.3c.9,1.15,1.37,2.32,1.37,3.52,0,12.44-50.09,22.51-111.89,22.51s-111.89-10.07-111.89-22.51c0-1.16.44-2.3,1.28-3.41h0S10.91,106.46,10.91,106.46c0,0,77.42,59.77,274.1.72l-26.5,229.12Z"/><ellipse class="cls-5" cx="147.07" cy="340.44" rx="111" ry="21.18"/><path class="cls-1" d="M285.02,107.18c-196.69,59.05-274.1-.72-274.1-.72,0,0,73.05,6.05,122.56,0,116.7-14.24,151.55.72,151.55.72Z"/><path d="M147.95,4c39.19,0,75.99,3.06,103.63,8.62,31.07,6.25,39.75,13.49,40.03,16.92l-.1.82c-1.22,4.31-12.93,11.24-42.17,16.88-27.37,5.28-63.38,8.18-101.39,8.18s-74.02-2.91-101.39-8.18C17.32,41.6,5.61,34.67,4.39,30.36l-.1-.82c.28-3.43,8.95-10.66,40.03-16.92,27.64-5.56,64.44-8.62,103.62-8.62M147.95,0C66.4,0,.29,13.3.29,29.71l.16,1.37c3.55,15.78,68.23,28.35,147.5,28.35s143.96-12.57,147.5-28.35l.16-1.37C295.61,13.3,229.51,0,147.95,0h0Z"/><path class="cls-2" d="M295.61,29.71c0,.46-.05.91-.16,1.37l.16-1.37Z"/><path d="M295.61,29.71l-.16,1.37c.11-.46.16-.91.16-1.37h0Z"/><path d="M147.95,321.59c29.63,0,57.44,2.31,78.33,6.52,24.13,4.86,29.56,10.43,29.56,12s-5.43,7.15-29.56,12c-20.88,4.2-48.69,6.51-78.33,6.51s-57.45-2.31-78.33-6.51c-24.13-4.85-29.56-10.43-29.56-12s5.43-7.14,29.56-12c20.88-4.2,48.7-6.52,78.33-6.52M147.95,317.59c-61.79,0-111.89,10.08-111.89,22.51s50.09,22.51,111.89,22.51,111.89-10.07,111.89-22.51-50.09-22.51-111.89-22.51h0Z"/><path class="cls-4" d="M293.93,30.03l-35.87,310.08c-.33-10.33-48.31-20.85-110.1-20.85s-110.13,9.31-110.13,21.74L2,29.71c3.55,15.78,66.68,27.96,145.95,27.96s142.54-12.18,145.98-27.64Z"/><path class="cls-4" d="M10.87,106.74s77.46,59.49,274.15.44c0,0-51.48-14.9-151.59-.44-49.37,7.13-122.56,0-122.56,0Z"/></g></svg>