<?xml version="1.0" encoding="UTF-8"?><svg id="Layer_2" xmlns="http://www.w3.org/2000/svg" viewBox="0 0 295.93 362.62"><defs><style>.cls-1{fill:#ccf7ff;}.cls-2{fill:none;}.cls-2,.cls-3{stroke:#000;stroke-linecap:round;stroke-linejoin:round;stroke-width:4px;}.cls-4{fill:#ccf5ff;}.cls-3{fill:#bbf4ff;}</style></defs><g id="Layer_1-2"><path class="cls-1" d="M269.57,240.68l-11.06,95.62c.91,1.15,1.37,2.33,1.37,3.53,0,.25-.02.5-.07.75.01.01,0,.01,0,.02-2.01,12.08-51.31,21.74-111.82,21.74-41.29,0-77.35-4.5-96.74-11.2-.11-.03-.21-.06-.32-.1-9.37-3.28-14.76-7.08-14.82-11.14v-.07c0-.13.01-.27.02-.4t0-.02c.09-.99.5-1.96,1.19-2.9.03-.03.05-.06.07-.09h0s-11.07-96.11-11.07-96.11v-.05s.03.01.05.01c.01,0,.03.01.05.01h.02c3.62.38,45.36,9.48,119.74,7.89,77.45-1.66,120.43-8.39,123.26-7.53h.02s.08.03.1.04l3.48-30.07h.01s-3.48,30.07-3.48,30.07Z"/><ellipse class="cls-4" cx="147.07" cy="340.44" rx="111" ry="21.18"/><path d="M147.95,4c39.19,0,75.99,3.06,103.63,8.62,31.08,6.25,39.75,13.49,40.03,16.92l-.1.82c-1.22,4.31-12.92,11.24-42.17,16.88-27.37,5.28-63.38,8.18-101.39,8.18s-74.02-2.91-101.39-8.18C17.32,41.6,5.61,34.67,4.39,30.36l-.1-.82c.28-3.43,8.95-10.66,40.03-16.92,27.64-5.56,64.44-8.62,103.62-8.62M147.95,0C66.4,0,.29,13.3.29,29.71l.16,1.37c3.55,15.78,68.23,28.35,147.5,28.35s143.96-12.57,147.5-28.35l.16-1.37C295.61,13.3,229.51,0,147.95,0h0Z"/><path d="M147.95,321.59c29.63,0,57.44,2.31,78.33,6.52,24.13,4.86,29.56,10.43,29.56,12s-5.43,7.15-29.56,12c-20.88,4.2-48.69,6.51-78.33,6.51s-57.45-2.31-78.33-6.51c-24.13-4.85-29.56-10.43-29.56-12s5.43-7.14,29.56-12c20.88-4.2,48.7-6.52,78.33-6.52M147.95,317.59c-61.79,0-111.89,10.08-111.89,22.51s50.09,22.51,111.89,22.51,111.89-10.07,111.89-22.51-50.09-22.51-111.89-22.51h0Z"/><path class="cls-2" d="M293.93,30.03l-8.92,77.15-4.68,40.42v.08l-2.89,25.02-4.38,37.82h-.01v.08h-.01s-3.48,30.08-3.48,30.08c-.02-.01-.05-.02-.1-.03h0s-.01-.01-.01-.01h-.01c-2.83-.86-39.21,2.98-116.55,7.53-67.68,3.98-122.83-7.51-126.45-7.89h-.02s-.04-.01-.05-.01c-.02,0-.03-.01-.05-.01h-.01l-3.45-30v-.11s-.05-.01-.06-.01c-2.41-21.02-4.55-39.66-5.85-51.09-.09-.76-.17-1.49-.25-2.19-.08-.75-.16-1.45-.24-2.12-.08-.71-.16-1.37-.23-1.99-.03-.27-.06-.53-.09-.78-.06-.51-.11-.97-.16-1.4-.11-.9-.18-1.6-.24-2.1-.03-.27-.06-.49-.08-.67-.02-.2-.04-.35-.05-.45-.01-.08-.01-.12-.01-.12L2,29.71c3.54,15.78,66.68,27.96,145.95,27.96s142.54-12.18,145.98-27.64Z"/><path class="cls-2" d="M22.8,210.14s.01.05.01.08c1.11,9.67,2.28,19.84,3.45,30.04,5.5,47.83,11.06,96.25,11.06,96.25l.02.2.06.46.44,3.83c0-12.24,46.83-21.45,107.23-21.73.96-.01,1.92-.01,2.89-.01.66,0,1.31,0,1.97.01,1.91,0,3.8.02,5.68.05,1.88.02,3.75.06,5.6.11,1.85.04,3.69.09,5.51.16.88.03,1.75.06,2.62.1.36.01.72.03,1.08.04l2.7.12c44.62,2.15,77.95,9.77,83.97,17.79.03.04.05.07.08.11.56.79.87,1.57.89,2.36l.41-3.53,11.09-95.9"/><path class="cls-3" d="M269.56,240.68s-.06.03-.1.04h-.03c-61.41,27.77-212.74,24.16-242.97-.31l-.03-.03s-.04-.02-.05-.03c-.03-.02-.04-.03-.06-.04h-.01s-.05-.05-.05-.05h.06s.03.01.05.01c.01,0,.03.01.05.01h.02c3.62.38,24.28,9.45,108.6-.02,80.22-9.01,131.57-.48,134.4.38h.02s.08.03.1.04Z"/></g></svg>