<?xml version="1.0" encoding="UTF-8"?><svg id="Layer_2" xmlns="http://www.w3.org/2000/svg" viewBox="0 0 295.93 362.62"><defs><style>.cls-1{fill:#ccf7ff;}.cls-2{fill:none;}.cls-2,.cls-3{stroke:#000;stroke-linecap:round;stroke-linejoin:round;stroke-width:4px;}.cls-4{fill:#ccf5ff;}.cls-3{fill:#bbf4ff;}</style></defs><g id="Layer_1-2"><path class="cls-1" d="M273.05,210.6l-14.54,125.7c.91,1.15,1.37,2.33,1.37,3.53,0,12.44-50.1,22.51-111.89,22.51s-111.88-10.07-111.88-22.51c0-1.13.42-2.24,1.21-3.32.03-.03.05-.06.07-.09h0s-14.53-126.16-14.53-126.16v-.11s0,0,.01,0c3.73.39,41.39-3.74,111.33,9.02,49.54,9.04,135.94-9.52,138.85-8.65h.01v.08Z"/><ellipse class="cls-4" cx="147.07" cy="340.44" rx="111" ry="21.18"/><path d="M147.95,4c39.19,0,75.99,3.06,103.63,8.62,31.08,6.25,39.75,13.49,40.03,16.92l-.1.82c-1.22,4.31-12.92,11.24-42.17,16.88-27.37,5.28-63.38,8.18-101.39,8.18s-74.02-2.91-101.39-8.18C17.32,41.6,5.61,34.67,4.39,30.36l-.1-.82c.28-3.43,8.95-10.66,40.03-16.92,27.64-5.56,64.44-8.62,103.62-8.62M147.95,0C66.4,0,.29,13.3.29,29.71l.16,1.37c3.55,15.78,68.23,28.35,147.5,28.35s143.96-12.57,147.5-28.35l.16-1.37C295.62,13.3,229.51,0,147.95,0h0Z"/><path d="M147.95,321.59c29.63,0,57.44,2.31,78.33,6.52,24.13,4.86,29.56,10.43,29.56,12s-5.43,7.15-29.56,12c-20.88,4.2-48.69,6.51-78.33,6.51s-57.45-2.31-78.33-6.51c-24.13-4.85-29.56-10.43-29.56-12s5.43-7.14,29.56-12c20.88-4.2,48.7-6.52,78.33-6.52M147.95,317.59c-61.79,0-111.89,10.08-111.89,22.51s50.09,22.51,111.89,22.51,111.89-10.07,111.89-22.51-50.09-22.51-111.89-22.51h0Z"/><path class="cls-2" d="M147.95,57.67C68.68,57.67,5.54,45.49,2,29.71l13.6,117.52s0,.04.01.12c.01.1.03.25.05.45.02.18.05.4.08.67.06.5.13,1.2.24,2.1.05.43.1.89.16,1.4.03.25.06.51.09.78.07.62.15,1.28.23,1.99.08.67.16,1.37.24,2.12.08.7.16,1.43.25,2.19,1.3,11.43,3.44,30.07,5.85,51.09.01,0,.03.01.05.01h.02c3.73.39,41.28-7.74,111.36,4.23,84.68,14.46,135.91-4.73,138.82-3.86h.01l4.38-37.82,2.89-25.02v-.08l4.68-40.42,8.92-77.15c-3.44,15.46-66.7,27.64-145.98,27.64Z"/><path class="cls-2" d="M273.05,210.52v.08h-.01s-14.98,129.51-14.98,129.51c-.33-10.33-48.31-20.85-110.1-20.85s-110.12,9.31-110.12,21.74l-.52-4.49s-8.19-71.26-14.51-126.29c0-.03,0-.06-.01-.08"/><path class="cls-3" d="M272.31,210.56s-.07.03-.11.04h-.03c-42.2,38.75-153.26,23.22-250.15-.31l-.03-.03s-.04-.03-.05-.04c-.03-.02-.05-.04-.07-.05-.03-.03-.05-.04-.05-.04h.05s.04.01.06.01c.01,0,.03.01.05.01h.02c3.73.39,25.6-13.78,111.81-.02,78.72,12.56,135.46-.48,138.37.39h.02c.06.02.09.03.11.04Z"/></g></svg>