<?xml version="1.0" encoding="UTF-8"?><svg id="Layer_2" xmlns="http://www.w3.org/2000/svg" viewBox="0 0 295.93 362.62"><defs><style>.cls-1{fill:#ccf7ff;}.cls-2{fill:none;}.cls-2,.cls-3{stroke:#000;stroke-linecap:round;stroke-linejoin:round;stroke-width:4px;}.cls-4{fill:#ccf5ff;}.cls-3{fill:#bbf4ff;}</style></defs><g id="Layer_1-2"><path class="cls-1" d="M280.33,147.6v.08l-21.82,188.62c.91,1.15,1.37,2.33,1.37,3.53,0,12.44-50.1,22.51-111.89,22.51s-111.88-10.07-111.88-22.51c0-1.13.42-2.24,1.21-3.32.03-.03.05-.06.07-.09h0S15.62,147.37,15.62,147.37l-.02-.14c3.95.39,71.86-6.12,118.31-.02,74.75,9.81,143.57-.42,146.42.39Z"/><ellipse class="cls-4" cx="147.06" cy="340.44" rx="111" ry="21.18"/><path d="M147.95,4c39.19,0,75.99,3.06,103.63,8.62,31.07,6.25,39.75,13.49,40.03,16.92l-.1.82c-1.22,4.31-12.93,11.24-42.17,16.88-27.37,5.28-63.38,8.18-101.39,8.18s-74.02-2.91-101.39-8.18C17.31,41.6,5.6,34.67,4.39,30.36l-.1-.82c.28-3.43,8.95-10.66,40.03-16.92,27.64-5.56,64.44-8.62,103.62-8.62M147.95,0C66.4,0,.28,13.3.28,29.71l.16,1.37c3.55,15.78,68.23,28.35,147.5,28.35s143.96-12.57,147.5-28.35l.16-1.37C295.61,13.3,229.5,0,147.95,0h0Z"/><path d="M147.95,321.59c29.63,0,57.44,2.31,78.33,6.52,24.13,4.86,29.56,10.43,29.56,12s-5.43,7.15-29.56,12c-20.88,4.2-48.69,6.51-78.33,6.51s-57.45-2.31-78.33-6.51c-24.13-4.85-29.56-10.43-29.56-12s5.43-7.14,29.56-12c20.88-4.2,48.7-6.52,78.33-6.52M147.95,317.59c-61.79,0-111.89,10.08-111.89,22.51s50.09,22.51,111.89,22.51,111.89-10.07,111.89-22.51-50.09-22.51-111.89-22.51h0Z"/><path class="cls-2" d="M293.93,30.03l-8.92,77.15-4.68,40.42c-2.85-.81-67.49,20.4-145.71,9.53-46.4-6.45-115.07-9.51-119.02-9.9-.03,0-.05-.01-.07-.01L2,29.71c3.54,15.78,66.68,27.96,145.95,27.96s142.54-12.18,145.98-27.64Z"/><path class="cls-2" d="M280.33,147.6h0s-.01.08-.01.08l-22.26,192.43c-.33-10.33-48.31-20.85-110.1-20.85s-110.12,9.31-110.12,21.74l-.52-4.49L15.54,147.3v-.08s.03.01.06.01c3.95.39,72.54,4.08,119.02,9.9,79.21,9.92,142.86-10.34,145.71-9.53Z"/><path class="cls-3" d="M280.46,147.64s-.09.03-.13.04h-.01c-68.94,47.73-260.37,2.95-264.7-.31-.03-.03-.06-.05-.08-.07-.08-.06-.12-.09-.12-.09,0,0,.04,0,.11,0,.02,0,.04.01.07.01,3.95.39,43.47-6.34,118.31-.02,80.87,6.83,143.57-.42,146.42.39h0c.09.03.13.04.13.04Z"/></g></svg>