<?xml version="1.0" encoding="UTF-8"?><svg id="Layer_2" xmlns="http://www.w3.org/2000/svg" viewBox="0 0 295.93 362.62"><defs><style>.cls-1{fill:#ffe766;}.cls-2{fill:#ccf7ff;}.cls-3{fill:none;}.cls-3,.cls-4{stroke:#000;stroke-linecap:round;stroke-linejoin:round;stroke-width:4px;}.cls-5{fill:#ccf5ff;}.cls-4{fill:#bbf4ff;}</style></defs><g id="Layer_1-2"><path class="cls-2" d="M273.05,210.6l-3.48,30.08-3.76,32.51v.12s-2.15,18.52-2.15,18.52l-.25,2.11-4.9,42.36c.91,1.15,1.37,2.33,1.37,3.53,0,.25-.02.5-.07.75,0,.01,0,.03-.01.04-2.06,12.07-51.33,21.72-111.81,21.72-41.11,0-77.03-4.46-96.48-11.11-.19-.07-.39-.13-.58-.19-9.37-3.28-14.76-7.08-14.82-11.14v-.07c0-.13.01-.27.02-.4t0-.02c.09-.99.5-1.96,1.19-2.9.03-.03.05-.06.07-.09h0s-5.1-44.33-5.1-44.33l-.11-.88c6.89-1.68,53.69,10.28,111.04,13.48,49.21,2.75,108.96-12.09,120.43-12.86l2.14-18.52v-.12s3.77-32.51,3.77-32.51l3.48-30.07h.01Z"/><path class="cls-2" d="M273.06,210.52v.08s-.01-.08-.01-.08h.01Z"/><ellipse class="cls-5" cx="147.06" cy="340.44" rx="111" ry="21.18"/><path d="M147.95,4c39.19,0,75.99,3.06,103.63,8.62,31.08,6.25,39.75,13.49,40.03,16.92l-.1.82c-1.22,4.31-12.93,11.24-42.17,16.88-27.37,5.28-63.38,8.18-101.39,8.18s-74.02-2.91-101.39-8.18C17.32,41.6,5.61,34.67,4.39,30.36l-.1-.82c.28-3.43,8.95-10.66,40.03-16.92,27.64-5.56,64.44-8.62,103.62-8.62M147.95,0C66.4,0,.29,13.3.29,29.71l.16,1.37c3.55,15.78,68.23,28.35,147.5,28.35s143.96-12.57,147.5-28.35l.16-1.37C295.61,13.3,229.51,0,147.95,0h0Z"/><path class="cls-1" d="M295.61,29.71c0,.46-.05.91-.16,1.37l.16-1.37Z"/><path d="M295.61,29.71l-.16,1.37c.11-.46.16-.91.16-1.37h0Z"/><path d="M147.95,321.59c29.63,0,57.44,2.31,78.33,6.52,24.13,4.86,29.56,10.43,29.56,12s-5.43,7.15-29.56,12c-20.88,4.2-48.69,6.51-78.33,6.51s-57.45-2.31-78.33-6.51c-24.13-4.85-29.56-10.43-29.56-12s5.43-7.14,29.56-12c20.88-4.2,48.7-6.52,78.33-6.52M147.95,317.59c-61.79,0-111.89,10.08-111.89,22.51s50.09,22.51,111.89,22.51,111.89-10.07,111.89-22.51-50.09-22.51-111.89-22.51h0Z"/><path class="cls-3" d="M293.93,30.03l-8.92,77.15-4.68,40.42v.08l-2.89,25.02-4.38,37.82h-.01v.08h-.01s-3.48,30.08-3.48,30.08l-3.76,32.51v.12s-2.15,18.52-2.15,18.52c-11.47.77-55.02,15.61-120.43,12.86-55.24-2.32-104.16-15.16-111.04-13.48l-2.11-18.36-3.75-32.54v-.05h-.01l-3.45-30v-.11s-.05-.01-.06-.01c-2.41-21.02-4.55-39.66-5.85-51.09-.09-.76-.17-1.49-.25-2.19-.08-.75-.16-1.45-.24-2.12-.08-.71-.16-1.37-.23-1.99-.03-.27-.06-.53-.09-.78-.06-.51-.11-.97-.16-1.4-.11-.9-.18-1.6-.24-2.1-.03-.27-.06-.49-.08-.67-.02-.2-.04-.35-.05-.45-.01-.08-.01-.12-.01-.12L2,29.71c3.54,15.78,66.68,27.96,145.95,27.96s142.54-12.18,145.98-27.64Z"/><path class="cls-3" d="M263.65,291.83l-.25,2.11-4.93,42.64-.41,3.53c-.02-.62-.21-1.23-.57-1.84-.05-.11-.12-.22-.2-.33l-.06-.09s-.04-.07-.06-.1c-.03-.04-.05-.07-.08-.11-6.02-8.02-39.35-15.64-83.97-17.79l-2.61-.12h-.09c-.36-.01-.72-.03-1.08-.04-.87-.04-1.74-.07-2.62-.1-1.82-.07-3.66-.12-5.51-.16h-.01c-1.85-.05-3.71-.09-5.59-.11h-.01c-1.88-.03-3.76-.05-5.67-.05-.66-.01-1.31-.01-1.97-.01-.97,0-1.93,0-2.89.01-60.4.28-107.23,9.49-107.23,21.73l-.44-3.83v-.02l-.06-.44-.02-.2s-2.15-18.75-5.1-44.44c-.04-.27-.07-.55-.1-.84-1.77-15.4-3.82-33.23-5.86-50.97-1.17-10.2-2.34-20.37-3.45-30.04,0-.03,0-.06-.01-.08"/><path class="cls-4" d="M263.66,291.83l-.25,2.11h-.01c-29.46,22.51-178.75,25.32-231.11-1.85-.02,0-.04-.01-.07-.02-.04-.27-.07-.55-.1-.84.02-.01.04-.01.06-.02,6.89-1.68,63.45,12.7,136.39,8.49,60.16-3.47,83.61-7.1,95.08-7.87h.01Z"/><path class="cls-2" d="M147.06,309.53c49.64-4.71,108.96-12.09,120.43-12.86"/></g></svg>