<?xml version="1.0" encoding="UTF-8"?><svg id="Layer_2" xmlns="http://www.w3.org/2000/svg" viewBox="0 0 295.93 362.62"><defs><style>.cls-1{fill:#ccf7ff;}.cls-2{fill:none;}.cls-2,.cls-3{stroke:#000;stroke-linecap:round;stroke-linejoin:round;stroke-width:4px;}.cls-4{fill:#ccf5ff;}.cls-3{fill:#bbf4ff;}</style></defs><g id="Layer_1-2"><path class="cls-1" d="M280.33,147.61v.07l-2.89,25.02-18.93,163.6c.91,1.15,1.37,2.33,1.37,3.53,0,12.44-50.1,22.51-111.89,22.51s-111.88-10.07-111.88-22.51c0-1.13.42-2.24,1.21-3.32.03-.03.05-.06.07-.09h0s-18.9-164.11-18.9-164.11v-.04s.04.01.06.01.04,0,.07,0c3.86.39,69.23,20.41,115.3,11.78,77.97-14.59,140.61-12.22,143.4-11.41h0c.06.02.09.03.11.04l2.89-25.02v-.07Z"/><ellipse class="cls-4" cx="147.06" cy="340.44" rx="111" ry="21.18"/><path d="M147.95,4c39.19,0,75.99,3.06,103.63,8.62,31.08,6.25,39.75,13.49,40.03,16.92l-.1.82c-1.22,4.31-12.92,11.24-42.17,16.88-27.37,5.28-63.38,8.18-101.39,8.18s-74.02-2.91-101.39-8.18C17.32,41.6,5.61,34.67,4.39,30.36l-.1-.82c.28-3.43,8.95-10.66,40.03-16.92,27.64-5.56,64.44-8.62,103.62-8.62M147.95,0C66.4,0,.29,13.3.29,29.71l.16,1.37c3.55,15.78,68.23,28.35,147.5,28.35s143.96-12.57,147.5-28.35l.16-1.37C295.61,13.3,229.51,0,147.95,0h0Z"/><path d="M147.95,321.59c29.63,0,57.44,2.31,78.33,6.52,24.13,4.86,29.56,10.43,29.56,12s-5.43,7.15-29.56,12c-20.88,4.2-48.69,6.51-78.33,6.51s-57.45-2.31-78.33-6.51c-24.13-4.85-29.56-10.43-29.56-12s5.43-7.14,29.56-12c20.88-4.2,48.7-6.52,78.33-6.52M147.95,317.59c-61.79,0-111.89,10.08-111.89,22.51s50.09,22.51,111.89,22.51,111.89-10.07,111.89-22.51-50.09-22.51-111.89-22.51h0Z"/><path class="cls-2" d="M147.95,57.67C68.68,57.67,5.54,45.49,2,29.71l16.49,142.56s.04.01.06.01.04,0,.07,0c3.86.39,41.19,17.11,115.3,11.78,79.12-5.69,140.61-12.22,143.4-11.41h0c.06.02.09.03.11.04l2.89-25.02v-.07s.01-.01.01-.01l4.68-40.42,8.92-77.15c-3.44,15.46-66.7,27.64-145.98,27.64Z"/><path class="cls-2" d="M18.49,172.27s.04.01.06.01.04,0,.07,0c3.86.39,17.44,11.96,115.3,11.78,79.32-.14,140.61-12.22,143.4-11.41h0c.06.02.09.03.11.04l-19.37,167.41c-.33-10.33-48.31-20.85-110.1-20.85s-110.12,9.31-110.12,21.74l-.52-4.49S15.57,147.23,15.6,147.23"/><path class="cls-3" d="M277.43,172.7s-.07.03-.11.04h-.01c-94.47,18.99-214.4,42.14-258.67-.31-.03-.03-.06-.05-.08-.07-.03-.02-.05-.04-.07-.05-.03-.03-.05-.04-.05-.04h.05s.04.01.06.01.04,0,.07,0c3.86.39,43.46,13.55,115.61-.02,81.07-15.25,140.3-.42,143.09.39h0c.06.02.09.03.11.04Z"/></g></svg>