<?xml version="1.0" encoding="UTF-8"?><svg id="Layer_1" xmlns="http://www.w3.org/2000/svg" viewBox="0 0 10 10"><path d="M7.85,3.04c.54-.48,1.1-.94,1.67-1.39.19-.15.29-.48.29-.7,0-.24-.11-.53-.29-.7-.19-.17-.44-.3-.7-.29-.09.01-.18.02-.26.04-.17.05-.31.13-.44.26-1.13.89-2.21,1.84-3.23,2.84-.17.16-.32.34-.49.5-.46-.61-.93-1.2-1.43-1.77-.31-.35-.64-.69-.99-1.01-.19-.18-.44-.29-.7-.29-.24,0-.53.11-.7.29-.17.19-.3.44-.29.7.01.26.1.52.29.7.74.69,1.39,1.46,2.01,2.26.15.19.29.39.44.58-.36.4-.71.8-1.05,1.21-.56.68-1.1,1.37-1.61,2.08-.14.2-.16.54-.1.76.06.23.24.48.46.59.23.12.51.18.76.1.08-.03.16-.07.24-.1.15-.09.27-.21.36-.36.19-.26.38-.51.58-.77.51-.65,1.04-1.28,1.58-1.9.49.66,1,1.3,1.55,1.91.32.36.66.7,1.02,1.03.19.18.43.29.7.29.24,0,.53-.11.7-.29.17-.19.3-.44.29-.7-.01-.26-.1-.52-.29-.7-.78-.71-1.46-1.51-2.11-2.34-.17-.22-.33-.44-.5-.67.73-.75,1.48-1.47,2.26-2.16Z"/></svg>